<svg width="327" height="327" viewBox="0 0 327 327" fill="none" xmlns="http://www.w3.org/2000/svg">
<mask id="mask0_3_1245" style="mask-type:alpha" maskUnits="userSpaceOnUse" x="0" y="0" width="327" height="327">
<rect width="327" height="327" rx="12" fill="#C94039"/>
</mask>
<g mask="url(#mask0_3_1245)">
<path d="M115.888 241.401C127.584 214.41 95.2678 189.823 64.4731 179.214C20.7601 164.163 15.5846 156.135 -2.33255 146.817C-24.3385 135.365 -43.0028 131.154 -56.3422 141.193C-69.668 151.231 -72.5614 168.619 -64.6691 176.199C-46.0456 194.116 -37.1617 198.109 -13.4578 215.049C29.9564 246.061 53.1441 252.798 67.1763 262.185C90.69 277.928 101.897 273.69 115.888 241.401Z" fill="#A86243"/>
<path d="M125.03 245.545C136.726 218.553 -37.1753 198.11 -13.4714 215.035C29.9428 246.047 53.1305 252.785 67.1627 262.171C90.69 277.929 111.052 277.833 125.03 245.545Z" fill="#D77E5B"/>
<path d="M-30.2475 107.682C-39.7019 121.333 -54.7665 144.806 -42.0112 157.575C-32.8149 166.772 -36.7678 175.995 -23.1703 169.393C-7.88839 161.963 1.56603 127.229 1.97355 126.4C9.15944 111.852 -20.6845 93.8939 -30.2475 107.682Z" fill="#7A4630"/>
<path d="M24.7809 30.5929C24.7809 30.5929 -37.0259 76.9683 -53.2587 95.13C-69.3149 113.102 -83.2926 135.026 -73.9876 159.721C-68.3367 174.718 -61.8436 184.865 -41.7395 178.345C-18.6604 170.86 -0.892662 138.218 8.41232 117.435C20.8959 89.6014 36.925 75.5556 46.393 65.8431C58.537 53.3867 57.5996 14.0477 24.7809 30.5929Z" fill="#A86243"/>
<path d="M111.935 20.9889L113.036 39.7075L100.932 43.0084L91.3828 26.9522L111.935 20.9889Z" fill="#273150"/>
<path d="M13.5471 54.161L27.7015 31.5574C27.7015 31.5574 57.5045 20.405 74.6882 19.1417C91.8718 17.8784 101.625 25.9608 101.625 25.9608L103.079 59.092C103.242 62.8276 100.769 66.2236 97.3869 66.9299L92.1028 68.0302L83.966 67.6363L83.6536 72.0782C83.5042 74.306 82.0779 76.2485 80.1082 76.9277L69.4448 80.5817L53.5788 84.0457C53.5788 84.0457 41.6114 81.0164 42.8747 73.0291C44.138 65.0418 20.7873 80.3101 13.5471 54.161Z" fill="#A86243"/>
<path d="M-4.39734 52.9246L7.27119 72.7435L36.6125 63.2755C39.1527 62.4605 40.5382 58.9694 39.5466 55.8723C38.4191 52.3405 35.3356 50.5338 32.483 51.7156L12.4603 57.3122L8.57528 48.4962L-4.39734 52.9246Z" fill="#273150"/>
<path d="M-25.8871 -17.8475C-55.663 -6.68156 -183.433 31.7745 -183.433 31.7745C-184.262 37.9823 -182.605 64.0227 -178.054 66.9161C-178.054 66.9161 -159.444 91.7203 -46.9828 67.7447C84.3192 39.7483 218.963 -15.5247 218.963 -15.5247L216.817 -51.3455C216.83 -51.3319 3.87527 -29.0135 -25.8871 -17.8475Z" fill="#B44C29"/>
<path d="M-34.5808 -38.101C-64.6284 -27.6957 -166.902 4.70189 -181.79 27.4414C-193.417 45.2091 -153.671 61.5505 -9.7766 28.0662C134.118 -5.41814 191.184 -35.4114 212.266 -45.3277C233.348 -55.2575 184.351 -68.0671 93.597 -72.8215C72.8136 -73.9218 29.9292 -60.433 -34.5808 -38.101Z" fill="#F08650"/>
<path d="M45.3741 -29.4618C48.9195 -24.2727 40.6333 -16.0273 22.2679 -9.61567C-4.09849 -0.419365 -39.3623 1.48238 -43.6141 -9.1674C-47.6213 -19.2195 -19.2717 -30.9967 7.81458 -34.4606C27.1581 -36.9465 41.9238 -34.5014 45.3741 -29.4618Z" fill="#B44C29"/>
<path d="M252.121 206.164C257.405 187.649 285.945 198.761 300.195 207.713C322.866 221.935 320.489 232.504 335.853 240.518C363.605 254.999 440.394 308.03 419.434 332.169C398.488 356.307 363.319 334.845 335.88 317.743C316.237 305.503 281.381 279.287 261.766 260.092C253.602 252.105 246.837 224.679 252.121 206.164Z" fill="#A86243"/>
<path d="M414.639 367.582C424.746 351.023 435.124 336.108 421.404 319.522C399.914 293.563 383.057 307.772 368.617 325.553C354.422 343.049 354.49 348.891 341.531 366.495C328.477 384.222 303.36 409.692 303.36 409.692C303.36 409.692 282.101 428.71 292.235 442.986C302.925 458.064 310.478 458.227 322.309 451.775C339.575 442.375 407.032 380.052 414.639 367.582Z" fill="#A86243"/>
<path d="M119.719 195.95C119.719 195.95 110.55 198.082 107.779 226.962C106.543 239.826 95.9476 299.283 96.7083 340.374C97.6049 388.542 93.489 453.664 93.489 453.664C93.489 453.664 127.068 443.761 176.609 439.958C226.163 436.154 286.245 456.747 286.245 456.747C305.425 459.912 285.158 401.855 280.757 379.74C275.608 353.863 282.876 307.053 278.61 272.156C272.185 219.681 263.206 209.14 262.133 204.834C259.783 195.379 229.396 195.094 208.911 192.16C178.945 187.895 141.753 192.771 119.719 195.95Z" fill="#29ACE4"/>
<path d="M95.0511 266.002C95.0511 266.002 188.087 240.315 260.653 261.506L264.375 280.768C264.375 280.768 179.407 249.946 92.5652 284.626L95.0511 266.002Z" fill="#3D4C6D"/>
<path d="M91.9539 289.122C91.9539 289.122 188.087 262.796 260.653 283.987L264.375 303.249C264.375 303.249 180.018 274.356 93.19 309.022L91.9539 289.122Z" fill="#3D4C6D"/>
<path opacity="0.5" d="M119.719 195.95C119.719 195.95 110.55 198.083 107.779 226.962C106.543 239.826 95.9476 299.283 96.7083 340.374C142.962 269.412 254.173 438.382 292.289 441.697C302.831 442.607 280.2 402.167 279.059 362.937C277.727 317.091 284.642 276.91 284.642 276.91C278.216 224.435 263.22 209.167 262.147 204.847C259.797 195.393 229.41 195.108 208.925 192.174C178.945 187.895 141.753 192.771 119.719 195.95Z" fill="#29ACE4"/>
<path d="M229.029 194.415C230.428 194.333 229.029 197.634 229.029 197.634C219.208 206.545 196.197 220.415 175.726 220.415C155.527 220.415 138.52 219.138 134.132 206.179C132.244 200.596 141.168 193.247 141.168 193.247C141.168 193.247 157.211 190.503 175.699 189.932C193.738 189.362 227.63 194.496 229.029 194.415Z" fill="#7A4630"/>
<path d="M175.006 202.267C158.773 201.75 159.276 189.212 159.398 181.347L161.001 155.674C161.096 149.425 167.63 144.25 177.736 144.548L195.192 144.82C204.999 145.119 209.808 150.512 210.704 156.57C210.704 156.57 213.584 183.629 212.579 192.065C211.547 200.623 191.252 202.769 175.006 202.267Z" fill="#7A4630"/>
<path d="M289.953 254.864C289.953 254.864 294.477 311.794 286.666 304.54C258.194 278.079 262.582 228.633 264.769 215.416C266.956 202.199 273.191 197.132 281.735 202.878C294.884 211.68 289.953 254.864 289.953 254.864Z" fill="#A86243"/>
<path d="M109.681 188.302C117.206 188.533 127.163 190.801 125.384 194.727C120.005 206.613 111.542 236.145 107.114 260.799C101.924 289.679 97.2653 315.964 95.0239 335.864C93.9915 345.047 85.9634 352.314 78.8183 347.179C76.7943 345.726 75.2729 343.688 74.7974 340.849C72.9364 329.48 66.4705 279.953 93.1357 198.775C96.4366 188.75 101.761 188.058 109.681 188.302Z" fill="#634874"/>
<path d="M275.581 194.741C270.623 190.883 249.935 186.658 242.26 189.022C234.585 191.386 236.826 225.21 246.389 263.435C255.64 300.383 269.944 348.28 277.578 356.729C279.086 358.386 281.205 359.242 283.392 359.093C287.983 358.767 295.291 357.164 294.911 350.222C294.368 340.157 286.313 295.71 280.078 247.392C274.78 206.206 280.39 198.476 275.581 194.741Z" fill="#634874"/>
<path d="M240.384 107.328C238.591 155.388 228.566 170.466 196.59 171.009C172.41 171.417 152.795 142.497 152.795 107.328C152.795 72.1594 172.41 43.6467 196.59 43.6467C220.769 43.6467 241.987 64.0634 240.384 107.328Z" fill="#273150"/>
<path d="M226.896 96.4339C226.665 64.9056 223.228 46.8662 188.358 44.2988C170.156 42.9676 152.238 44.6248 141.684 50.0856C132.148 55.0301 126.388 62.7186 123.06 83.4069C120.547 98.9876 117.015 125.938 122.231 152.033C125.573 168.755 147.022 175.085 165.931 176.389C214.751 179.758 222.25 166.785 225.293 143.774C229.395 112.626 226.977 109.379 226.896 96.4339Z" fill="#7A4630"/>
<path d="M220.579 115.519C220.28 88.1884 209.046 76.316 177.654 73.9932C161.272 72.7842 128.996 81.2198 127.488 99.3136C125.872 118.902 123.522 135.963 126.999 152.916C129.988 167.491 145.623 172.599 162.657 173.794C206.615 176.864 216.626 161.976 219.221 142.035C221.435 125.055 220.701 126.74 220.579 115.519Z" fill="#A96344"/>
<path d="M134.185 49.6238C131.265 51.3897 130.137 53.142 128.073 64.4167C127.638 66.7939 132.012 57.6111 135.951 54.025C139.891 50.4388 138.98 55.2475 159.601 54.7449C180.221 54.2423 209.454 50.6969 209.454 50.6969L212.32 79.196L222.97 103.946L229.395 90.2804C230.359 66.0196 225.985 51.8923 210.051 46.5403C180.887 36.7327 144.903 43.1307 134.185 49.6238Z" fill="#273150"/>
<path d="M185.899 74.5502C185.532 79.3589 183.264 83.0674 180.819 82.8772C178.374 82.687 176.662 78.6798 176.975 73.871C177.287 69.008 179.569 65.1638 182.069 65.3539C184.554 65.5441 186.266 69.6872 185.899 74.5502Z" fill="#102342"/>
<path d="M175.942 64.9735L188.236 61.075" stroke="#273150" stroke-miterlimit="10" stroke-linecap="round" stroke-linejoin="round"/>
<path d="M151.41 75.7594C151.247 80.2964 149.264 83.7875 146.981 83.6109C144.686 83.4343 142.92 79.658 143.028 75.1209C143.137 70.5431 145.12 66.9298 147.457 67.1064C149.807 67.283 151.573 71.1816 151.41 75.7594Z" fill="#102342"/>
<path d="M150.214 64.9736L139.171 61.8221" stroke="#273150" stroke-miterlimit="10" stroke-linecap="round" stroke-linejoin="round"/>
<path d="M242.503 117.068C239.298 130.068 230.088 139.196 221.842 137.865C221.842 137.865 222.1 108.388 221.978 102.764C221.897 99.2323 223.934 88.338 232.723 89.7779C241.485 91.2042 245.818 103.62 242.503 117.068Z" fill="#7A4630"/>
<path d="M237.858 126.346C237.396 129.484 234.421 131.779 231.215 131.521C228.009 131.263 225.727 128.533 226.148 125.395C226.556 122.23 229.544 119.866 232.804 120.124C236.051 120.396 238.32 123.194 237.858 126.346Z" fill="#E2D6C9"/>
</g>
</svg>
