<svg width="327" height="327" viewBox="0 0 327 327" fill="none" xmlns="http://www.w3.org/2000/svg">
<mask id="mask0_3_1294" style="mask-type:alpha" maskUnits="userSpaceOnUse" x="0" y="0" width="327" height="327">
<rect width="327" height="327" rx="12" fill="#A36EBA"/>
</mask>
<g mask="url(#mask0_3_1294)">
<path d="M-229.601 447.143C-229.601 447.143 355.895 255.786 418.724 230.078C481.554 204.37 504.405 190.088 475.841 164.392C447.276 138.697 398.729 158.68 398.729 158.68C398.729 158.68 475.841 115.833 447.289 64.4293C418.737 13.0258 344.469 33.0084 347.326 81.568C347.326 81.568 418.724 -178.331 253.076 -201.183C87.4267 -224.034 7.4462 -75.5115 53.1494 1.60004C53.1494 1.60004 -3.96707 18.7387 -1.11063 90.1374C-1.11063 90.1374 -66.7964 98.7067 -109.643 141.541C-152.49 184.375 -126.782 224.365 -126.782 224.365C-126.782 224.365 -183.898 212.94 -223.888 272.925C-263.879 332.91 -221.032 390.027 -221.032 390.027C-221.032 390.027 -301 438.586 -301 455.712C-301.013 472.851 -229.601 447.143 -229.601 447.143Z" fill="#F3E7D9" fill-opacity="0.2"/>
<path d="M115.352 183.749C111.544 174.866 109.639 168.201 92.5007 174.866C75.362 181.531 57.2712 200.249 50.6061 202.153C43.9411 204.057 43.9411 214.531 43.9411 214.531C43.9411 214.531 43.6279 214.844 37.5892 216.122C31.5631 217.387 27.7546 222.148 24.5724 225.643C21.4027 229.139 12.5076 231.67 8.69905 235.804C4.89045 239.926 -20.4918 258.016 -2.08778 294.825C5.72986 310.46 10.6034 303.707 30.9117 292.281C51.22 280.855 83.9063 249.76 98.8275 239.6C113.761 229.452 119.249 192.869 115.352 183.749Z" fill="#273252"/>
<path d="M115.352 183.748C111.544 174.866 109.639 168.201 92.5006 174.866C92.5006 174.866 89.9448 188.396 82.6659 207.565C75.3995 226.733 64.1616 235.315 64.1616 235.315L50.2803 255.135C50.2803 255.135 51.4705 246.352 48.3008 249.848C45.1312 253.343 32.9411 257.615 29.1325 261.737C25.3239 265.859 7.9848 305.348 7.9848 305.348C7.9848 305.348 10.6157 303.694 30.9241 292.268C51.2324 280.843 83.9187 249.747 98.8399 239.587C113.761 229.452 119.248 192.869 115.352 183.748Z" fill="#1D2538"/>
<path d="M16.341 300.536C16.341 300.536 21.4149 301.802 21.4149 273.25C21.4149 248.82 8.7739 247.366 4.91519 237.707C-6.5106 209.143 -4.55619 223.437 -13.4888 204.069C-24.9146 179.313 -29.9886 163.452 -50.9359 172.335C-76.669 183.247 -80.7657 188.834 -78.2225 197.717C-75.6792 206.599 -73.7749 201.525 -71.8706 207.877C-69.9663 214.229 -57.9016 238.972 -52.8276 251.676C-47.7537 264.367 -42.6672 270.08 -42.6672 270.08C-42.6672 270.08 -35.689 284.049 -31.2414 291.027C-26.819 297.993 -6.5106 318.94 16.341 300.536Z" fill="#C94039"/>
<path d="M16.3416 300.537C16.3416 300.537 21.4156 301.802 21.4156 273.25C21.4156 273.25 6.01833 277.623 -4.55553 274.315C-15.1294 271.008 -20.7295 254.032 -29.6622 234.663C-41.088 209.907 -52.7894 226.733 -52.7894 226.733C-52.7894 226.733 -80.7525 188.835 -78.2218 197.717C-75.6786 206.6 -73.7743 201.526 -71.87 207.878C-69.9657 214.23 -57.9009 238.973 -52.827 251.677C-47.753 264.368 -42.6666 270.081 -42.6666 270.081C-42.6666 270.081 -35.6883 284.05 -31.2408 291.028C-26.8183 297.994 -6.50996 318.941 16.3416 300.537Z" fill="#992C29"/>
<path opacity="0.9" d="M-55.3846 28.736C-81.4685 37.4306 -112.501 27.3078 -139.487 -1.34439C-162.501 -25.7745 -150.587 -84.1312 -150.587 -84.1312C-150.587 -84.1312 -146.365 -67.5814 -136.417 -56.569C-126.47 -45.5567 -119.705 -70.6759 -133.411 -96.6094C-147.117 -122.543 -134.676 -140.772 -134.676 -140.772L-119.066 -115.978C-119.066 -115.978 -104.571 -175.387 -81.6439 -198.94C-58.7171 -222.494 -83.0972 -192.037 -67.4995 -165.866C-51.9018 -139.694 -45.7378 -168.296 -40.4133 -156.307C-21.1072 -129.772 -26.8202 -89.7815 -26.8202 -89.7815L1.74434 -108.348C1.73181 -108.361 13.1576 5.88445 -55.3846 28.736Z" fill="#F7BC4B"/>
<path opacity="0.4" d="M-32.5322 38.7211C-52.5273 48.7187 -149.634 64.4291 -183.899 -38.3904C-218.164 -141.21 -118.063 -254.428 4.58914 -246.886C97.4112 -241.173 101.696 -314 101.696 -314C101.696 -314 130.26 -235.46 90.2701 -205.468C10.0014 -145.269 23.1561 -115.502 20.2996 -61.2295C17.4432 -6.96951 -12.537 28.7361 -32.5322 38.7211Z" fill="#FEED7F"/>
<path d="M129.622 162.338C116.63 139.248 169.437 118.564 198.39 114.216C216.318 111.523 237.916 118.915 244.118 126.244C246.235 128.762 256.37 143.595 258.776 152.014C261.407 161.21 260.167 202.766 243.541 202.466C220.778 202.065 142.626 185.415 129.622 162.338Z" fill="#992C29"/>
<path d="M151.471 167.161C144.254 151.513 163.799 127.634 187.565 121.432C215.24 114.216 236.099 125.354 238.104 134.662C240.108 143.983 221.579 159.368 203.563 167.248C185.548 175.129 154.691 174.126 151.471 167.161Z" fill="#F3E7D9"/>
<path d="M197.375 156.774C213.862 143.632 218.572 144.91 218.159 134.249C217.495 117.022 176.728 132.269 168.309 134.675C159.89 137.08 144.693 162.262 153.864 176.795C163.047 191.315 180.887 169.917 197.375 156.774Z" fill="#273252"/>
<path d="M202.776 159.957C202.776 159.957 167.534 154.908 132.881 163.691C115.805 168.013 92.4518 200.424 92.4518 241.328C92.4518 282.233 104.479 396.554 104.479 396.554L251.273 394.148C251.273 394.136 246.099 167.173 202.776 159.957Z" fill="#F7BC4B"/>
<path d="M181.139 340.227L137.528 267.375L132.893 163.691C115.817 168.013 92.4641 200.424 92.4641 241.328C92.4641 282.233 104.491 396.554 104.491 396.554L251.285 394.148C251.285 394.148 196.01 367 173.71 355.11C157.787 346.616 158.839 331.319 158.839 331.319L181.139 340.227Z" fill="#CE9436"/>
<path d="M184.997 166.297C184.997 178.649 173.246 202.002 161.67 202.002C150.106 202.002 138.58 186.041 138.58 173.676C138.58 161.323 150.256 158.993 161.82 158.993C173.409 159.005 184.997 156.625 184.997 166.297Z" fill="#F5894E"/>
<path d="M137.879 162.964C131.69 155.346 91.9878 166.572 85.9742 179.802C84.095 183.936 87.1895 200.837 86.4754 210.859C84.8843 232.909 81.5142 254.132 83.9948 262.401C87.6029 274.428 92.514 331.995 87.7031 346.428C82.8923 360.873 92.514 393.359 97.3249 400.575C102.136 407.791 140.648 399.372 140.648 399.372L134.546 345.663C134.546 345.663 117.997 303.305 117.884 271.321C117.784 239.349 140.247 165.883 137.879 162.964Z" fill="#C94039"/>
<path d="M137.879 162.964C131.69 155.347 106.859 177.81 100.845 191.04C94.8318 204.27 113.737 326.846 113.737 326.846C113.737 326.846 122.657 343.697 124.148 345.188C125.639 346.679 116.218 345.689 116.218 345.689L140.648 399.397L134.546 345.689C134.546 345.689 117.997 303.331 117.884 271.346C117.784 239.349 140.247 165.883 137.879 162.964Z" fill="#992C29"/>
<path d="M144.068 161.773C129.159 178.699 151.547 241.591 161.207 239.511C170.866 237.419 195.96 162.863 178.909 157.338" stroke="#992C29" stroke-miterlimit="10"/>
<path d="M163.885 251.84C165.765 251.401 166.607 248.123 165.766 244.518C164.925 240.914 162.719 238.347 160.839 238.786C158.959 239.224 158.117 242.502 158.958 246.107C159.799 249.712 162.005 252.278 163.885 251.84Z" fill="#29ABE2"/>
<path d="M140.247 157.589C129.949 157.739 126.616 160.909 121.217 165.344C115.817 169.792 113.562 177.897 109.954 198.344C106.346 218.802 112.823 256.738 118.836 256.738C124.85 256.738 125 228.524 129.811 210.471C134.622 192.43 150.533 157.439 140.247 157.589Z" fill="#F3E7D9"/>
<path d="M196.9 160.107C189.283 169.153 188.205 230.491 191.813 262.977C195.422 295.463 217.083 338.786 219.488 359.232C221.894 379.69 223.097 398.934 227.907 402.554C232.718 406.175 287.981 403.193 287.981 403.193C287.981 403.193 307.976 374.629 277.983 328.938C259.454 300.7 266.156 175.254 250.521 169.24C234.873 163.214 204.517 151.062 196.9 160.107Z" fill="#992C29"/>
<path d="M200.959 208.88C193.342 217.926 188.205 230.491 191.814 262.977C195.422 295.463 217.083 338.786 219.489 359.232C221.894 379.691 223.097 398.934 227.908 402.555C232.718 406.175 253.165 400.525 239.283 347.656C237.467 340.74 222.758 270.67 226.73 243.571C229.16 226.996 208.576 199.835 200.959 208.88Z" fill="#C94039"/>
<path d="M190.71 252.93C185.311 248.482 184.521 243.596 184.521 226.745C184.521 209.895 186.35 183.41 189.282 165.344C192.138 147.73 226.09 149.321 219.751 162.012C211.394 178.725 206.984 186.467 203.564 213.415C199.756 243.408 196.11 257.377 190.71 252.93Z" fill="#F3E7D9"/>
<path d="M209.879 260.434C209.879 260.434 212.359 298.595 238.631 302.065C238.631 302.065 223.422 286.204 209.879 260.434Z" fill="#C94039"/>
<path d="M269.576 271.334C263.55 258.643 262.974 255.599 245.459 234.84C219.751 204.371 211.194 186.581 226.416 166.297C234.472 155.561 249.268 152.015 267.358 167.249C274.637 173.376 287.642 196.428 294.971 207.24C305.708 223.076 318.812 241.718 322.257 249.761C325.703 257.804 324.162 259.921 316.244 260.523C304.555 261.425 290.423 261.725 286.364 267.413C280.613 275.469 274.813 282.372 269.576 271.334Z" fill="#273252"/>
<path d="M322.257 249.76C318.812 241.717 305.695 223.075 294.971 207.239C287.642 196.427 274.637 173.388 267.359 167.249C249.268 152.015 234.472 155.56 226.416 166.297L247.877 172.536C247.877 172.536 256.484 179.777 266.143 189.888C270.027 192.531 275.314 196.327 280.927 200.95C292.165 210.196 292.816 217.475 292.816 217.475L286.214 214.831C290.436 220.106 285.437 213.441 288.193 218.79C299.281 240.314 288.92 245.137 284.886 251.176C279.599 259.106 280.613 275.468 286.364 267.413C290.423 261.725 304.555 261.412 316.244 260.522C324.162 259.921 325.703 257.803 322.257 249.76Z" fill="#1D2538"/>
<path d="M275.291 275.468C276.556 282.447 278.661 282.584 282.269 284.99C285.877 287.395 293.457 305.536 298.267 322.387C303.078 339.237 307.889 344.048 306.686 348.859C305.484 353.67 306.686 358.481 310.295 359.683C313.903 360.886 329.551 354.872 336.767 359.683C343.983 364.494 347.591 376.534 353.617 376.534C359.643 376.534 358.428 368.115 356.023 364.507C353.617 360.899 352.415 345.251 350.009 328.413C347.604 311.562 329.876 267.55 326.694 262.476C321.395 253.995 314.642 254.07 299.721 255.172C291.151 255.786 274.025 268.478 275.291 275.468Z" fill="#C94039"/>
<path d="M275.291 275.468C276.556 282.447 278.661 282.584 282.269 284.99C285.877 287.395 293.457 305.536 298.267 322.387C303.078 339.237 307.889 344.048 306.686 348.859C305.484 353.67 306.686 358.481 310.295 359.683C313.903 360.886 329.551 354.872 336.767 359.683C343.983 364.494 347.591 376.534 353.617 376.534C359.643 376.534 358.428 368.115 356.023 364.507C353.617 360.899 352.415 345.251 350.009 328.413C347.604 311.562 329.876 267.55 326.694 262.476C321.395 253.995 314.642 254.07 299.721 255.172C291.151 255.786 274.025 268.478 275.291 275.468Z" fill="#992C29"/>
<path d="M275.289 275.469C276.554 282.447 278.659 282.585 282.267 284.99C285.875 287.396 293.455 305.536 298.266 322.387C303.077 339.238 307.888 344.048 306.685 348.859C305.482 353.67 306.685 358.481 310.293 359.684C313.901 360.886 313.463 337.747 309.742 322.387C306.021 307.027 307.599 298.683 295.447 279.603C292.941 275.657 286.878 260.272 281.49 264.895C276.98 268.766 274.713 272.286 275.289 275.469Z" fill="#C94039"/>
<path d="M138.505 121.52L143.955 172.899C143.955 172.899 148.127 182.859 163.424 181.744C178.721 180.641 181.502 168.476 181.502 168.476L175.94 110.959L138.505 121.52Z" fill="#F5894E"/>
<path d="M138.505 121.52C138.505 121.52 154.454 155.171 161.607 161.36C168.761 167.549 183.607 168.476 183.607 168.476L177.769 110.959L138.505 121.52Z" fill="#CC6D3D"/>
<path d="M207.498 104.619C192.752 139.335 179.911 146.826 179.911 146.826C125.463 152.452 96.9984 114.491 99.6168 80.1259C101.007 44.5205 108.224 31.4661 147.162 30.4012C201.396 28.9228 220.627 73.6989 207.498 104.619Z" fill="#1D2538"/>
<path d="M207.498 104.619C192.752 139.335 179.911 146.827 179.911 146.827C125.463 152.452 96.9984 114.491 99.6168 80.1264C101.007 44.521 103.212 27.1944 148.377 23.4485C211.093 18.2493 220.627 73.6994 207.498 104.619Z" fill="#1D2538"/>
<path d="M211.156 104.982C198.59 134.586 157.447 113.075 157.447 113.075C149.103 107.989 145.871 78.1716 144.004 58.452C142.388 41.4512 132.641 25.44 179.497 30.1381C221.141 34.3226 222.344 78.6351 211.156 104.982Z" fill="#3E4C6F"/>
<path d="M147.425 34.574C147.425 34.574 118.247 49.9086 113.336 55.3709C108.425 60.8332 104.629 119.44 113.975 137.945C123.183 156.198 182.993 153.505 196.423 140.15C207.423 129.213 204.705 118.325 207.01 100.285C209.44 81.2794 196.336 68.9641 194.895 61.5975C192.439 48.994 147.425 34.574 147.425 34.574Z" fill="#CC6D3D"/>
<path d="M214.026 93.0685C211.658 103.793 206.183 112.061 201.773 111.56C197.351 111.059 195.672 101.913 198.027 91.089C200.395 80.2396 205.932 71.8957 210.367 72.4845C214.777 73.0734 216.406 82.3067 214.026 93.0685Z" fill="#CC6D3D"/>
<path d="M118.221 86.3032C108.75 92.4921 105.681 133.222 122.168 141.954C138.655 150.686 153.388 147.967 164.801 137.794C174.786 128.899 169.099 107.513 155.242 97.779C138.279 85.8646 127.693 80.1142 118.221 86.3032Z" fill="#F5894E"/>
<path d="M96.6606 92.8557C98.3269 102.001 103.225 109.08 107.635 108.679C112.058 108.278 114.326 100.51 112.672 91.2896C111.018 82.0438 106.057 74.9027 101.622 75.3662C97.1994 75.8423 94.9818 83.685 96.6606 92.8557Z" fill="#F5894E"/>
<path d="M197.088 49.8082C197.088 49.8082 194.206 77.7337 197.501 86.0024L204.868 98.2425L207.348 58.6156L197.088 49.8082Z" fill="#3E4C6F"/>
<path d="M106.746 98.1675C106.746 98.1675 106.22 70.3548 107.836 62.011L111.282 49.5829L111.332 89.0971L106.746 98.1675Z" fill="#1D2538"/>
<path d="M196.46 44.5334C196.46 44.5334 186.4 55.7086 152.762 56.1095C136.062 56.31 121.88 62.4989 113.761 60.8953C93.8288 56.9364 127.267 19.2513 161.544 17.6978C196.222 16.1318 196.46 44.5334 196.46 44.5334Z" fill="#1D2538"/>
<path d="M161.745 17.2718C134.258 19.6522 105.656 45.1347 121.705 48.3043C126.265 49.2064 133.519 50.4091 142.326 51.3612C157.799 48.9308 173.885 40.9252 173.885 40.9252C172.87 48.4046 164.263 51.4239 154.93 52.4512C162.835 52.9523 171.392 53.1653 180.049 52.7895C194.281 52.1756 195.772 52.9147 196.749 48.179C198.704 38.5699 191.45 14.691 161.745 17.2718Z" fill="#3E4C6F"/>
<path d="M175.813 97.5414C176.051 101.563 174.259 103.442 172.242 103.568C170.225 103.693 168.759 102.001 168.521 97.9799C168.283 93.9583 169.711 90.5882 171.728 90.4755C173.745 90.3627 175.562 93.5073 175.813 97.5414Z" fill="#34283A"/>
<path d="M142.112 99.9465C142.35 103.968 140.559 105.847 138.542 105.973C136.525 106.098 135.059 104.407 134.821 100.385C134.583 96.3634 136.011 92.9933 138.028 92.8806C140.045 92.7553 141.874 95.9124 142.112 99.9465Z" fill="#34283A"/>
<path d="M181.2 84.2362C181.2 84.2362 177.254 77.1326 170.839 79.062" stroke="#34283A" stroke-width="2" stroke-miterlimit="10" stroke-linecap="round" stroke-linejoin="round"/>
<path d="M135.485 81.5802C135.485 81.5802 127.88 81.0289 126.101 87.0675" stroke="#34283A" stroke-width="2" stroke-miterlimit="10" stroke-linecap="round" stroke-linejoin="round"/>
</g>
</svg>
