<svg width="327" height="327" viewBox="0 0 327 327" fill="none" xmlns="http://www.w3.org/2000/svg">
<mask id="mask0_3_1120" style="mask-type:alpha" maskUnits="userSpaceOnUse" x="0" y="0" width="327" height="327">
<rect width="327" height="327" rx="12" fill="#F5C466"/>
</mask>
<g mask="url(#mask0_3_1120)">
<path d="M133.79 224.493L118.134 221.744C117.62 216.939 116.578 212.27 115.031 207.794L128.035 198.674C128.913 198.063 129.126 196.841 128.51 195.969L110.454 170.242C109.843 169.36 108.626 169.146 107.753 169.767L94.7495 178.892C91.0694 175.905 87.0306 173.345 82.6911 171.221L85.4402 155.56C85.6245 154.518 84.9117 153.505 83.8596 153.32L52.8915 147.885C51.8394 147.701 50.8309 148.414 50.6467 149.451L47.8975 165.112C43.0925 165.631 38.4185 166.673 33.9384 168.22L24.8181 155.211C24.2169 154.329 22.9999 154.116 22.1223 154.736L-3.61407 172.783C-4.49652 173.394 -4.70985 174.615 -4.08923 175.488L5.03585 188.492C2.06365 192.177 -0.510954 196.211 -2.6298 200.555L-18.2908 197.806C-19.3381 197.622 -20.3514 198.325 -20.5357 199.382L-25.971 230.35C-26.1552 231.397 -25.4425 232.421 -24.3952 232.605L-8.7342 235.354C-8.2251 240.149 -7.1778 244.818 -5.6311 249.299L-18.6399 258.414C-19.5223 259.039 -19.7357 260.242 -19.1151 261.124L-1.05885 286.856C-0.443079 287.729 0.77392 287.942 1.63697 287.331L14.6409 278.216C18.3307 281.178 22.3696 283.753 26.7091 285.876L23.9648 301.523C23.7805 302.57 24.4884 303.579 25.5406 303.763L56.5086 309.198C57.5608 309.382 58.5741 308.674 58.7535 307.627L61.4978 291.981C66.2979 291.462 70.972 290.415 75.4472 288.883L84.5723 301.877C85.1832 302.745 86.4002 302.958 87.273 302.352L113.009 284.305C113.887 283.695 114.1 282.482 113.485 281.6L104.364 268.591C107.346 264.906 109.911 260.872 112.03 256.537L127.686 259.287C128.733 259.471 129.747 258.748 129.931 257.701L135.366 226.733C135.546 225.676 134.838 224.677 133.79 224.493ZM49.0805 260.552C31.4025 257.449 19.5816 240.605 22.6847 222.922C25.7878 205.244 42.6319 193.423 60.3147 196.526C77.9928 199.629 89.8136 216.473 86.7105 234.156C83.6074 251.834 66.7585 263.655 49.0805 260.552Z" fill="#F4E8D8" fill-opacity="0.3"/>
<path d="M346.916 66.4142L320.612 70.3852C317.238 63.0396 313.102 56.1788 308.263 49.8998L324.04 28.503C325.107 27.0678 324.797 25.0168 323.352 23.955L281.009 -7.26034C279.569 -8.33673 277.528 -8.02642 276.475 -6.57668L260.693 14.8202C253.265 12.0371 245.488 10.1219 237.478 9.06491L233.502 -17.2533C233.24 -18.9988 231.572 -20.2303 229.808 -19.9637L177.772 -12.0992C176.007 -11.8326 174.781 -10.1646 175.047 -8.41915L179.023 17.8991C171.678 21.2785 164.817 25.4241 158.528 30.2582L137.131 14.476C135.706 13.3996 133.665 13.7099 132.603 15.1596L101.368 57.4879C100.297 58.9279 100.607 60.9789 102.057 62.0359L123.458 77.8133C120.699 85.2413 118.765 93.0185 117.718 101.033L91.409 105.009C89.6441 105.276 88.4126 106.924 88.6793 108.704L96.5389 160.734C96.8055 162.489 98.4734 163.74 100.238 163.474L126.547 159.498C129.907 166.834 134.053 173.69 138.887 179.973L123.1 201.361C122.033 202.82 122.338 204.842 123.788 205.918L166.131 237.133C167.571 238.186 169.617 237.88 170.659 236.45L186.442 215.068C193.875 217.807 201.652 219.742 209.671 220.803L213.642 247.097C213.909 248.853 215.572 250.084 217.332 249.817L269.362 241.958C271.127 241.691 272.359 240.028 272.092 238.268L268.121 211.974C275.462 208.595 282.323 204.444 288.607 199.634L309.999 215.402C311.429 216.459 313.475 216.149 314.532 214.718L345.767 172.385C346.833 170.95 346.528 168.909 345.078 167.837L323.686 152.05C326.455 144.617 328.38 136.845 329.437 128.845L355.74 124.874C357.5 124.607 358.722 122.925 358.456 121.169L350.596 69.1391C350.334 67.3597 348.671 66.1475 346.916 66.4142ZM232.523 174.203C199.785 179.149 169.239 156.618 164.293 123.885C159.348 91.1469 181.879 60.6007 214.612 55.6551C247.35 50.7096 277.896 73.241 282.842 105.974C287.787 138.712 265.261 169.258 232.523 174.203Z" fill="#F4E8D8" fill-opacity="0.3"/>
<path d="M16.4448 199.247C17.3805 199.247 17.3805 197.792 16.4448 197.792C15.509 197.792 15.509 199.247 16.4448 199.247Z" fill="#F4E8D8" fill-opacity="0.3"/>
<path d="M208.338 206.639C227.973 208.045 275.691 250.269 309.291 286.031C352.755 332.295 406.144 381.395 428 391.189C455.114 403.346 485.489 419.236 498.106 419.236C498.106 419.236 439.685 481.462 415.844 502.491C392.002 523.521 404.632 481.462 373.785 502.491C342.938 523.521 290.589 585.628 290.589 585.628C290.589 585.628 263.475 577.618 223.283 540.758C170.78 492.615 87.2771 280.431 98.9614 243.511C110.658 206.58 189.636 201.499 208.338 206.639Z" fill="#992C29"/>
<path d="M208.338 206.639C227.973 208.045 277.097 247.989 310.697 283.75C354.161 330.015 412.925 380.001 434.865 389.63C459.946 400.629 511.208 422.568 523.826 422.568L499.051 440.738C499.051 440.738 442.804 437.359 398.099 388.389C344.013 329.153 254.366 226.392 208.338 206.639Z" fill="#29ACE4"/>
<path d="M118.644 234.934C118.644 234.934 68.8469 235.69 45.6437 227.384C22.4404 219.079 28.9737 130.755 75.132 119.118C127.871 105.816 191.243 134.229 226.295 157.066C261.348 179.903 247.112 214.058 196.382 230.149C144.907 246.464 118.644 234.934 118.644 234.934Z" fill="#229BC6"/>
<path d="M229.072 189.413C229.072 217.768 136.885 219.197 108.779 219.197C80.673 219.197 57.8833 196.207 57.8833 167.852C57.8833 139.498 80.673 116.508 108.779 116.508C136.885 116.508 229.072 161.059 229.072 189.413Z" fill="#992C29"/>
<path d="M249.44 254.899C249.44 254.899 272.808 309.139 277.782 320.846C287.044 342.644 267.976 353.548 254.898 342.644C241.819 331.739 215.663 281.056 210.76 269.076C205.845 257.085 235.818 239.092 249.44 254.899Z" fill="#CE6D3E"/>
<path d="M256.174 269.631C256.174 269.631 273.6 310.213 277.888 321.153C282.957 334.09 268 341.639 261.301 333.724C253.126 324.071 246.498 257.179 256.174 269.631Z" fill="#F6874E"/>
<path d="M199.772 206.331C208.09 201.18 227.619 211.352 239.019 232.83C251.649 256.624 255.146 266.572 255.146 266.572C255.146 266.572 241.347 264.197 234.542 270.329C223.484 280.288 214.859 291.535 214.859 291.535C214.859 291.535 202.1 265.709 195.295 248.342C188.998 232.204 189.033 212.994 199.772 206.331Z" fill="#C93F37"/>
<path d="M338.602 410.422C344.225 425.474 330.155 431.298 321.743 424.741C313.331 418.196 296.768 394.461 277.416 373.42C255.134 349.212 247.041 337.339 261.23 326.978C275.419 316.605 276.081 317.633 298.93 350.169C314.631 372.522 335.944 403.334 338.602 410.422Z" fill="#CE6D3E"/>
<path d="M320.821 387.502C310.224 402.873 268.862 345.703 268.862 345.703C255.701 328.762 257.095 328.726 263.487 324.591C276.423 318.046 276.648 318.98 291.924 340.092C303.962 356.726 324.153 382.658 320.821 387.502Z" fill="#F6874E"/>
<path d="M234.932 149.375C232.333 186.081 200.044 191.622 162.723 194.954C140.288 196.962 116.388 188.125 100.875 172.802C90.5852 162.642 83.981 149.623 83.9574 135.032C83.8865 98.4433 125.165 65.7769 162.487 62.4452C199.796 59.1136 237.72 109.939 234.932 149.375Z" fill="#273150"/>
<path d="M163.995 73.3899C174.696 57.8159 175.972 40.1075 166.846 33.8371C157.72 27.5666 141.648 35.1087 130.947 50.6827C120.246 66.2567 118.969 83.9652 128.096 90.2356C137.222 96.506 153.294 88.964 163.995 73.3899Z" fill="#273150"/>
<path d="M133.591 52.9155C135.033 34.5595 128.567 19.0793 119.148 18.3395C109.729 17.5997 100.925 31.8806 99.4834 50.2366C98.0417 68.5926 104.508 84.0727 113.927 84.8125C123.346 85.5523 132.15 71.2715 133.591 52.9155Z" fill="#273150"/>
<path d="M133.548 108.853C140.889 88.7427 134.666 67.9961 119.649 62.5146C104.632 57.033 86.5069 68.8923 79.1661 89.0029C71.8253 109.114 78.0482 129.86 93.0653 135.342C108.082 140.823 126.207 128.964 133.548 108.853Z" fill="#273150"/>
<path d="M114.573 188.459C135.502 178.474 144.455 153.586 134.571 132.869C124.687 112.153 99.7081 103.454 78.7798 113.439C57.8515 123.424 48.8984 148.313 58.7826 169.029C68.6667 189.745 93.6452 198.445 114.573 188.459Z" fill="#273150"/>
<path d="M214.916 132.656C230.855 119.037 230.709 92.7036 214.59 73.8376C198.471 54.9715 172.482 50.7175 156.543 64.3359C140.604 77.9543 140.75 104.288 156.869 123.154C172.988 142.02 198.977 146.274 214.916 132.656Z" fill="#273150"/>
<path d="M234.625 147.189C232.51 177.15 206.152 181.663 175.707 184.38C157.395 186.011 137.889 178.804 125.236 166.304C116.836 158.011 111.461 147.39 111.437 135.481C111.378 105.626 145.061 78.9733 175.518 76.2442C205.951 73.5388 236.893 115.019 234.625 147.189Z" fill="#48598B"/>
<path d="M162.621 78.5003C171.814 65.1204 172.906 49.9036 165.06 44.5125C157.213 39.1215 143.4 45.5978 134.207 58.9777C125.014 72.3576 123.922 87.5744 131.768 92.9654C139.614 98.3565 153.427 91.8802 162.621 78.5003Z" fill="#48598B"/>
<path d="M131.399 64.1272C132.382 51.6123 127.975 41.0582 121.555 40.5539C115.135 40.0497 109.133 49.7863 108.15 62.3011C107.167 74.816 111.575 85.3701 117.995 85.8743C124.415 86.3786 130.416 76.6421 131.399 64.1272Z" fill="#48598B"/>
<path d="M140.955 108.886C148.725 87.5982 144.565 66.5234 131.662 61.8137C118.76 57.1041 102.001 70.543 94.2308 91.8306C86.4604 113.118 90.6207 134.193 103.523 138.903C116.426 143.612 133.184 130.173 140.955 108.886Z" fill="#48598B"/>
<path d="M123.869 180.809C141.853 172.229 149.546 150.842 141.053 133.04C132.559 115.239 111.095 107.764 93.1112 116.344C75.1272 124.925 67.4336 146.312 75.927 164.113C84.4204 181.915 105.885 189.39 123.869 180.809Z" fill="#48598B"/>
<path d="M207.607 132.849C221.304 121.146 221.178 98.517 207.327 82.305C193.475 66.093 171.143 62.4373 157.446 74.1399C143.749 85.8425 143.875 108.472 157.726 124.684C171.578 140.896 193.91 144.551 207.607 132.849Z" fill="#48598B"/>
<path d="M207.405 335.166C187.45 356.1 128.568 334.421 126.075 314.538C125.012 306.079 121.952 286.432 112.985 250.564C107.373 228.128 106.44 220.78 108.933 217.625C115.478 209.344 140.111 206.402 165.334 202.586C206.932 196.277 209.885 206.236 223.602 225.565C240.307 249.134 246.663 293.981 207.405 335.166Z" fill="#F6BE4A"/>
<path d="M139.626 251.911C119.672 272.845 128.568 334.421 126.075 314.538C125.012 306.079 121.952 286.432 112.985 250.564C107.373 228.128 106.44 220.78 108.933 217.626C115.478 209.344 140.111 206.402 165.334 202.586C206.932 196.277 209.85 206.107 224.346 226.321C241.17 249.796 178.885 210.726 139.626 251.911Z" fill="#D09435"/>
<path d="M127.942 294.914C124.823 306.599 125.402 336.43 126.382 318.59C126.855 310.084 112.985 248.697 112.985 248.697L177.479 226.049L135.101 264.375C135.113 264.375 131.061 283.23 127.942 294.914Z" fill="#D09435"/>
<path d="M119.53 324.828C119.53 324.828 36.7593 440.773 30.8876 456.026C25.0041 471.325 5.85315 490.96 6.68015 498.994C12.1974 483.718 62.5853 488.704 71.6704 485.786C71.6704 485.786 53.2284 473.629 68.7996 468.029C84.3708 462.429 119.908 461.815 140.796 462.169C203.151 463.256 275.348 475.236 296.567 512.545C296.567 512.545 261.041 337.966 211.788 299.995C163.538 262.78 119.53 324.828 119.53 324.828Z" fill="#F6BE4A"/>
<path d="M218.616 235.323C226.792 239.766 234.117 249.028 234.117 249.028C234.117 249.028 232.64 238.584 225.398 228.306C219.939 220.556 199.926 231.106 199.926 231.106C199.926 231.106 213.43 232.512 218.616 235.323Z" fill="#D09435"/>
<path d="M208.74 316.984C196.417 327.179 135.964 324.982 145.084 299.026C149.444 286.597 177.006 271.345 196.807 269.065C229.45 265.308 235.44 294.915 208.74 316.984Z" fill="#FEED7F"/>
<path d="M265.353 457.561L149.444 448.216C120.534 448.216 82.1379 395.867 91.4948 380.911C100.84 365.954 139.484 317.976 139.484 317.976C143.537 298.034 150.46 283.077 179.369 283.077C179.369 283.077 212.402 284.943 226.107 321.095C226.107 321.095 261.632 374.838 267.232 415.975C271.343 446.137 265.353 457.561 265.353 457.561Z" fill="#FEED7F"/>
<path d="M124.008 336.359C124.008 336.359 137.263 315.436 162.912 306.717C162.912 306.717 132.289 310.509 121.397 325.454C110.504 340.399 124.008 336.359 124.008 336.359Z" fill="#F6BE4A"/>
<path d="M176.298 223.556L173.58 223.969C166.693 225.021 160.254 220.295 159.202 213.407L155.185 187.168C154.134 180.28 158.86 173.841 165.747 172.79L168.465 172.376C175.352 171.325 181.791 176.051 182.843 182.938L186.859 209.178C187.923 216.066 183.185 222.504 176.298 223.556Z" fill="#F6874E"/>
<path d="M172.458 192.721L167.921 193.418C161.53 194.398 155.564 190.015 154.583 183.624L150.294 155.565C149.314 149.173 153.697 143.207 160.088 142.227L164.625 141.53C171.017 140.549 176.983 144.932 177.963 151.324L182.252 179.382C183.233 185.774 178.849 191.752 172.458 192.721Z" fill="#CE6D3E"/>
<path d="M78.8653 263.133C70.9143 283.076 58.084 318.708 54.4925 324.757C50.901 330.806 50.7828 340.044 60.3523 344.77C69.9101 349.508 77.1286 347.121 81.4408 341.982C85.753 336.843 110.338 295.221 115.478 278.551C119.518 265.461 116.789 251.095 109.712 247.704C102.636 244.313 86.8163 243.191 78.8653 263.133Z" fill="#F6874E"/>
<path d="M78.8652 263.133C70.9142 283.076 58.0839 318.708 54.4924 324.757C53.3937 326.611 52.6139 329.01 52.484 330.321C52.2004 333.263 54.3388 333.523 57.3278 329.967C59.6906 327.155 77.0576 291.889 83.0711 272.431C88.0213 256.399 82.4568 254.119 78.8652 263.133Z" fill="#CE6D3E"/>
<path d="M122.023 215.77C111.65 212.179 97.5672 217.79 87.7495 241.632C82.5985 254.155 75.4391 270.919 75.4391 270.919C75.4391 270.919 91.6483 273.471 112.512 286.502C112.512 286.502 119.14 273.412 123.889 261.267C133.861 235.713 130.127 218.57 122.023 215.77Z" fill="#EC5E4D"/>
<path d="M122.023 215.77C111.65 212.179 97.5672 217.79 87.7495 241.632C82.5985 254.155 75.4391 270.919 75.4391 270.919L82.7639 272.479L98.5005 259.164L127.008 251.296C133.341 230.207 129.241 218.275 122.023 215.77Z" fill="#C93F37"/>
<path d="M-5.03954 398.041C-5.03954 398.041 -15.1053 408.437 -11.8209 414.321C-8.72558 419.838 2.3562 424.339 10.2599 417.924C18.1637 411.509 43.5643 394.839 77.3295 349.437C91.731 330.085 63.7549 316.605 52.5786 328.833C41.4023 341.061 -5.03954 398.041 -5.03954 398.041Z" fill="#F6874E"/>
<path d="M4.87256 387.148L29.8007 372.498L59.9152 324.627C59.9152 324.627 55.7921 325.241 52.5786 328.845C41.5559 341.202 4.87256 387.148 4.87256 387.148Z" fill="#CE6D3E"/>
<path d="M111.425 259.388C111.425 259.388 93.9994 262.873 87.7733 266.666C81.5472 270.458 83.0712 272.431 83.0712 272.431L111.425 259.388Z" fill="#C93F37"/>
<path d="M194.775 221.063C160.419 244.432 82.4805 252.537 82.7286 251.804C85.2214 244.302 102.08 207.04 119.53 203.921C131.238 203.886 177.101 204.323 194.775 221.063Z" fill="#229BC6"/>
<path d="M206.778 202.066C195.567 199.573 172.493 218.063 171.241 223.048C169.989 228.034 208.799 220.295 279.377 261.893C303.62 276.177 224.842 206.425 206.778 202.066Z" fill="#29ACE4"/>
<path d="M180.763 223.84C182.551 223.84 184.001 222.39 184.001 220.602C184.001 218.815 182.551 217.365 180.763 217.365C178.976 217.365 177.526 218.815 177.526 220.602C177.526 222.39 178.976 223.84 180.763 223.84Z" fill="#273150"/>
<path d="M210.169 52.261C213.713 53.4543 213.3 71.0693 204.486 69.9115C196.193 68.8246 187.072 66.2845 189.86 61.169C192.637 56.0652 206.625 51.0678 210.169 52.261Z" fill="#C93F37"/>
<path d="M211.126 57.9909C211.126 57.9909 209.696 68.6474 206.66 69.0845C203.612 69.5098 206.27 64.5124 206.967 57.5538C207.664 50.5952 211.61 53.5133 211.126 57.9909Z" fill="#F7BC4B"/>
<path d="M188.384 65.5166C188.384 65.5166 203.907 78.784 218.664 83.8051C229.816 87.5974 238.37 87.7628 238.37 87.7628L235.771 84.254L240.532 80.2962C240.532 80.2962 220.625 80.119 192.2 63.012L188.384 65.5166Z" fill="#C93F37"/>
<path d="M196.004 70.3487C196.004 70.3487 207.605 85.979 220.684 93.4338C230.572 99.0692 238.889 100.711 238.889 100.711L237.283 96.8481L243.013 93.8236C243.013 93.8236 223.578 90.1967 200.41 68.5884L196.004 70.3487Z" fill="#C93F37"/>
<path d="M118.032 141.66C125.224 136.723 126.497 126.083 120.876 117.896C115.256 109.709 104.869 107.075 97.677 112.013C90.4851 116.951 89.2116 127.59 94.8324 135.777C100.453 143.964 110.84 146.598 118.032 141.66Z" fill="#CE6D3E"/>
<path d="M168.465 68.3875C172.411 75.3342 159.072 83.6751 144.848 91.7561C130.635 99.837 115.903 100.759 111.957 93.7999C108.011 86.8531 116.328 74.6608 130.541 66.5799C144.765 58.5107 164.519 61.4407 168.465 68.3875Z" fill="#273150"/>
<path d="M105.258 116.944C105.778 74.7789 140.075 62.244 148.593 60.6136C191.077 52.4618 210.193 77.638 218.309 122.201C224.24 154.761 204.971 163.906 185.69 171.266C162.487 180.127 104.62 169.612 105.258 116.944Z" fill="#CE6D3E"/>
<path d="M119.27 130.542C121.55 98.6084 152.244 87.6211 159.805 86.0144C159.805 86.0144 201.072 96.0447 209.023 102.294C216.974 108.544 218.439 129.55 218.439 129.55C222.243 153.923 204.912 161.685 187.627 168.112C166.858 175.826 116.423 170.415 119.27 130.542Z" fill="#F6874E"/>
<path d="M132.218 76.1022C154.547 59.3969 190.203 66.1428 190.203 66.1428C190.203 66.1428 156.414 39.2772 125.65 66.5563C98.0516 91.0236 105.672 112.703 109.559 125.651C109.559 125.651 105.825 95.8557 132.218 76.1022Z" fill="#F6BE4A"/>
<path d="M153.898 113.754C156.351 113.314 157.674 109.245 156.853 104.666C156.032 100.087 153.378 96.7315 150.924 97.1715C148.471 97.6114 147.148 101.68 147.969 106.259C148.79 110.838 151.445 114.194 153.898 113.754Z" fill="#273252"/>
<path d="M196.438 107.795C198.488 107.365 199.44 103.631 198.563 99.4548C197.687 95.2784 195.315 92.2414 193.266 92.6714C191.216 93.1014 190.264 96.8356 191.14 101.012C192.016 105.188 194.388 108.225 196.438 107.795Z" fill="#273252"/>
<path d="M150.578 81.6311C150.578 81.6311 144.588 82.7298 143.241 88.188" stroke="#273252" stroke-miterlimit="10" stroke-linecap="round" stroke-linejoin="round"/>
<path d="M195.673 80.1308C195.673 80.1308 191.762 76.7756 187.71 77.3426" stroke="#273252" stroke-miterlimit="10" stroke-linecap="round" stroke-linejoin="round"/>
</g>
</svg>
